<svg width="514" height="439" viewBox="0 0 514 439" fill="none" xmlns="http://www.w3.org/2000/svg">
<path d="M107.996 55.8165C124.912 56.9543 131.995 45.4031 139.933 30.5577C161.691 -10.0774 210.155 -6.16557 226.411 18.8548C237.923 36.5826 262.756 32.9308 282.835 25.9958C302.599 19.1691 336.28 12.6133 363.117 20.7728C386.553 27.9029 396.159 53.606 417.527 52.0239C464.128 48.578 487.618 94.5987 479.171 114.678C473.658 127.779 470.929 142.44 475.402 155.92C480.329 170.765 491.603 182.522 500.711 195.287C509.819 208.052 517.151 224.013 512.624 238.989C508.747 251.808 497.192 260.672 490.022 271.995C467.745 307.18 489.784 361.111 460.099 390.444C438.851 411.433 404.217 406.59 374.488 410.599C349.699 413.936 326.371 424.361 301.689 428.435C251.709 436.703 201.242 418.498 150.579 417.978C132.731 417.794 114.548 419.788 97.2634 415.388C74.1956 409.515 54.5718 391.755 46.5685 369.53C35.5219 338.864 45.9836 303.366 33.5184 273.241C23.3599 248.698 -1.49484 228.727 0.0755021 202.244C1.0502 185.751 12.3025 171.968 20.0459 157.339C31.5473 135.613 16.3096 49.6833 107.996 55.8165ZM255.478 16.0049C251.027 16.0049 247.431 18.7681 247.431 22.1706C247.431 25.5732 251.049 28.0438 255.478 28.3363C269.936 29.2899 269.936 23.4493 269.936 20.0359C269.936 14.5963 259.918 16.0049 255.478 16.0049ZM402.3 42.3148C406.166 45.5114 411.094 47.4186 416.119 47.6787C417.462 47.7437 418.924 47.657 419.952 46.8118C421.23 45.7607 421.371 43.6043 420.234 42.4015C419.519 41.643 418.48 41.3071 417.505 40.9061C415.848 40.2343 414.234 39.2699 413.292 37.7637C413.021 37.3302 412.783 36.821 412.339 36.5717C409.556 35.0005 397.21 38.1104 402.3 42.3148ZM426.927 47.7653C428.205 48.2096 429.591 47.7979 430.88 47.3861C431.703 47.1152 432.71 46.53 432.494 45.7065C432.385 45.3056 432.017 45.0455 431.649 44.8505C429.959 43.9511 427.772 43.2792 426.082 44.4387C424.382 45.5873 425.66 47.3319 426.927 47.7653ZM485.723 164.003C485.939 165.921 487.131 167.579 488.268 169.14C490.477 172.152 492.719 175.208 495.632 177.559C496.867 178.556 498.296 179.445 499.888 179.499C501.339 179.553 502.726 178.892 503.895 178.047C506.754 175.999 508.682 172.716 509.083 169.237C509.624 164.469 507.404 159.821 504.827 155.757C503.224 153.243 501.361 150.729 498.697 149.386C494.213 147.121 491.257 149.093 490.001 153.07C488.863 156.732 485.257 159.929 485.723 164.003ZM8.79361 275.073C6.43268 277.153 8.56618 283.243 9.25929 287.263C9.46506 288.466 9.74664 289.712 10.5047 290.677C11.5444 291.988 13.2772 292.53 14.8909 293.006C17.7608 293.841 21.248 294.545 23.4465 292.53C25.071 291.034 25.3093 288.585 25.2984 286.385C25.2984 284.37 25.1901 282.365 24.9735 280.361C24.8761 279.396 24.7353 278.41 24.2155 277.587C23.5548 276.536 22.3852 275.929 21.248 275.441C17.1435 273.707 11.1545 273.003 8.79361 275.073ZM153.07 427.611C151.673 427.893 150.005 428.5 149.799 429.898C149.637 431.057 150.601 432.043 151.543 432.737C159.243 438.491 169.618 438.859 179.257 438.989C180.383 439 181.553 439.011 182.582 438.578C184.639 437.711 185.636 434.991 184.672 432.986C184.325 432.249 183.773 431.632 183.188 431.068C175.456 423.515 162.72 425.683 153.07 427.611ZM345.475 423.721C336.779 430.082 345.572 435.771 356.554 431.556C362.467 429.28 368.142 427.037 374.207 425.52C376.167 425.032 388.004 422.464 388.004 419.81C388.004 412.755 374.672 414.424 366.279 415.594C359.511 416.537 352.644 418.477 345.475 423.721Z" fill="#ECF3FF"/>
</svg>
